<svg xmlns="http://www.w3.org/2000/svg" viewBox="0 0 25 25" id="Researchgate--Streamline-Font-Awesome" height="25" width="25">
  <desc>
    Researchgate Streamline Icon: https://streamlinehq.com
  </desc>
<!--! Font Awesome Free 6.5.2 by @fontawesome - https://fontawesome.com License - https://fontawesome.com/license/free (Icons: CC BY 4.0, Fonts: SIL OFL 1.1, Code: MIT License) Copyright 2024 Fonticons, Inc.-->
  <path d="M0.25000000000000006 0.25000000000000006v24.500000000000004h24.500000000000004V0.25000000000000006H0.25000000000000006Zm14.339062500000002 18.2875c-0.3609375 0.1640625 -1.8156250000000003 0.328125 -2.734375 -0.7765625 -0.503125 -0.5796875 -1.3835937500000002 -1.8210937500000002 -2.3078125000000003 -3.4781250000000004 -0.48671875 0 -0.80390625 0 -1.1703125 -0.0328125v2.5375c0 1.2851562500000002 0.328125 1.159375 1.4109375 1.30703125v0.44296875c-0.37734375 -0.01640625 -1.2632812500000001 -0.043750000000000004 -1.946875 -0.043750000000000004 -0.71640625 0 -1.4273437500000001 0.0328125 -1.8375 0.043750000000000004v-0.44296875c0.84765625 -0.15859375 1.203125 -0.07109375000000001 1.203125 -1.30703125V10.8046875c0 -1.2359375000000001 -0.35000000000000003 -1.1484375 -1.203125 -1.30703125v-0.44296875c1.4109375 0.0546875 2.90390625 -0.0328125 3.87734375 -0.0328125 1.73359375 0 3.05703125 0.7875000000000001 3.05703125 2.4937500000000004 0 1.1539062500000001 -0.91328125 2.3078125000000003 -2.14375 2.59765625 0.74375 1.3234375 1.640625 2.4937500000000004 2.3078125000000003 3.22109375 0.39375000000000004 0.4265625 0.9406250000000002 0.80390625 1.4875 0.80390625v0.39921875Zm1.25234375 -7.382812500000001c-1.27421875 0 -1.7609375 -0.85859375 -1.7609375 -1.7609375V7.632812500000001c0 -0.6671875 0.48125000000000007 -1.6625 1.8593750000000002 -1.6625s1.6625 0.9789062500000001 1.6625 0.9789062500000001l-0.58515625 0.39375000000000004s-0.30078125 -0.68359375 -1.07734375 -0.68359375c-0.43203125000000003 0 -1.07734375 0.39921875 -1.07734375 1.07734375v1.465625c0 0.7328125 0.3609375 1.27421875 0.9789062500000001 1.27421875 0.77109375 0 1.17578125 -0.5960937500000001 1.17578125 -1.465625h-0.9789062500000001V8.425781250000002h1.6625c0 1.12109375 0.25703125 2.72890625 -1.8593750000000002 2.72890625Zm-6.37109375 2.44453125c-0.5140625 0 -0.74375 -0.01640625 -1.0937500000000002 -0.043750000000000004v-3.8117187500000003c0.35000000000000003 -0.0328125 0.8203125 -0.0328125 1.23046875 -0.0328125 1.27421875 0 2.0343750000000003 0.6671875 2.0343750000000003 1.8867187500000002 0 1.19765625 -0.8203125 2.0015625000000004 -2.1710937500000003 2.0015625000000004Z" fill="currentColor" stroke-width="0.0558"></path>
</svg>