<svg xmlns="http://www.w3.org/2000/svg" viewBox="0 0 25 25" id="Goodreads--Streamline-Font-Awesome" height="25" width="25">
  <desc>
    Goodreads Streamline Icon: https://streamlinehq.com
  </desc>
<!--! Font Awesome Free 6.5.2 by @fontawesome - https://fontawesome.com License - https://fontawesome.com/license/free (Icons: CC BY 4.0, Fonts: SIL OFL 1.1, Code: MIT License) Copyright 2024 Fonticons, Inc.-->
  <path d="M16.65078125 8.95625c0.27890625 2.03984375 -0.25703125 4.3203125 -1.9632812500000003 5.507031250000001 -1.21953125 0.84765625 -2.8875 0.77109375 -3.871875 0.31171875000000004 -2.02890625 -0.9460937500000001 -2.70703125 -3.2046875 -2.559375 -5.315625000000001 0.23515625000000004 -3.33046875 2.23671875 -4.80703125 4.11796875 -4.78515625 2.5648437500000005 -0.010937500000000001 3.9265625000000006 1.7390625000000002 4.2765625 4.28203125ZM24.75 3.3125v18.375c0 1.68984375 -1.37265625 3.0625000000000004 -3.0625000000000004 3.0625000000000004H3.3125c-1.68984375 0 -3.0625000000000004 -1.37265625 -3.0625000000000004 -3.0625000000000004V3.3125c0 -1.68984375 1.37265625 -3.0625000000000004 3.0625000000000004 -3.0625000000000004h18.375c1.68984375 0 3.0625000000000004 1.37265625 3.0625000000000004 3.0625000000000004ZM18.296875 15.628125s-0.0054687500000000005 -1.8593750000000002 -0.0054687500000000005 -11.883593750000001h-1.5859375000000002v2.20390625c-0.043750000000000004 0.01640625 -0.065625 -0.02734375 -0.08750000000000001 -0.065625 -0.525 -1.13203125 -1.9632812500000003 -2.53203125 -4.15625 -2.515625 -2.83828125 0.021875000000000002 -4.768750000000001 1.70625 -5.5015625 4.2546875 -0.23515625000000004 0.8148437500000001 -0.3171875 1.6460937500000001 -0.30078125 2.4937500000000004 0.09296875 4.2601562500000005 2.4664062500000004 6.4421875 6.1468750000000005 6.300000000000001 1.58046875 -0.06015625000000001 2.98046875 -0.9296875000000001 3.7734375000000004 -2.4718750000000003 0.02734375 -0.0546875 0.06015625000000001 -0.10390625 0.09296875 -0.15859375 0.010937500000000001 0.0054687500000000005 0.021875000000000002 0.0054687500000000005 0.0328125 0.010937500000000001 0.01640625 0.2078125 0.010937500000000001 1.67890625 0.0054687500000000005 1.8867187500000002 -0.010937500000000001 0.8093750000000001 -0.109375 1.61328125 -0.39375000000000004 2.3789062500000004 -0.4265625 1.1484375 -1.21953125 1.89765625 -2.43359375 2.16015625 -0.9734375 0.21328125 -1.946875 0.2078125 -2.9093750000000003 -0.065625 -1.17578125 -0.33359375 -1.9960937500000002 -1.0390625 -2.24765625 -2.2859375 -0.01640625 -0.08750000000000001 -0.07109375000000001 -0.07109375000000001 -0.12578125 -0.07109375000000001h-1.465625c0.043750000000000004 0.5796875 0.17500000000000002 1.11015625 0.46484375000000006 1.596875 1.3234375 2.21484375 4.522656250000001 2.65234375 7.0109375 2.0453125 2.72890625 -0.6726562500000001 3.6804687499999997 -3.00234375 3.6859375000000005 -5.813281250000001Z" fill="currentColor" stroke-width="0.0558"></path>
</svg>