<svg xmlns="http://www.w3.org/2000/svg" viewBox="0 0 20 20" id="Researchgate--Streamline-Font-Awesome" height="20" width="20">
  <desc>
    Researchgate Streamline Icon: https://streamlinehq.com
  </desc>
<!--! Font Awesome Free 6.5.2 by @fontawesome - https://fontawesome.com License - https://fontawesome.com/license/free (Icons: CC BY 4.0, Fonts: SIL OFL 1.1, Code: MIT License) Copyright 2024 Fonticons, Inc.-->
  <path d="M0.2 0.2v19.6h19.6V0.2H0.2Zm11.471250000000001 14.629999999999999c-0.28875 0.13125 -1.4525000000000001 0.2625 -2.1875 -0.6212500000000001 -0.4025 -0.46375 -1.106875 -1.4568750000000001 -1.8462500000000002 -2.7825 -0.38937499999999997 0 -0.6431250000000001 0 -0.93625 -0.02625v2.0300000000000002c0 1.0281250000000002 0.2625 0.9275 1.12875 1.045625v0.354375c-0.301875 -0.013125 -1.010625 -0.035 -1.5574999999999999 -0.035 -0.573125 0 -1.141875 0.02625 -1.47 0.035v-0.354375c0.678125 -0.12687500000000002 0.9624999999999999 -0.056875 0.9624999999999999 -1.045625V8.64375c0 -0.98875 -0.28 -0.91875 -0.9624999999999999 -1.045625v-0.354375c1.12875 0.04375 2.323125 -0.02625 3.101875 -0.02625 1.386875 0 2.4456249999999997 0.63 2.4456249999999997 1.995 0 0.9231250000000001 -0.730625 1.8462500000000002 -1.7149999999999999 2.078125 0.595 1.05875 1.3125 1.995 1.8462500000000002 2.5768750000000002 0.315 0.34125 0.7525000000000001 0.6431250000000001 1.19 0.6431250000000001v0.319375Zm1.001875 -5.906250000000001c-1.019375 0 -1.4087500000000002 -0.686875 -1.4087500000000002 -1.4087500000000002V6.10625c0 -0.53375 0.385 -1.33 1.4875 -1.33s1.33 0.7831250000000001 1.33 0.7831250000000001l-0.468125 0.315s-0.24062499999999998 -0.546875 -0.8618750000000001 -0.546875c-0.345625 0 -0.8618750000000001 0.319375 -0.8618750000000001 0.8618750000000001v1.1725c0 0.58625 0.28875 1.019375 0.7831250000000001 1.019375 0.616875 0 0.940625 -0.47687500000000005 0.940625 -1.1725h-0.7831250000000001V6.7406250000000005h1.33c0 0.896875 0.205625 2.183125 -1.4875 2.183125Zm-5.096875 1.955625c-0.41125 0 -0.595 -0.013125 -0.8750000000000001 -0.035v-3.049375c0.28 -0.02625 0.65625 -0.02625 0.984375 -0.02625 1.019375 0 1.6275000000000002 0.53375 1.6275000000000002 1.5093750000000001 0 0.958125 -0.65625 1.60125 -1.736875 1.60125Z" fill="currentColor" stroke-width="0.0446"></path>
</svg>