<svg xmlns="http://www.w3.org/2000/svg" viewBox="0 0 16 16" id="Researchgate--Streamline-Font-Awesome" height="16" width="16">
  <desc>
    Researchgate Streamline Icon: https://streamlinehq.com
  </desc>
<!--! Font Awesome Free 6.5.2 by @fontawesome - https://fontawesome.com License - https://fontawesome.com/license/free (Icons: CC BY 4.0, Fonts: SIL OFL 1.1, Code: MIT License) Copyright 2024 Fonticons, Inc.-->
  <path d="M0.16 0.16v15.68h15.68V0.16H0.16Zm9.177 11.703999999999999c-0.23099999999999998 0.105 -1.162 0.21 -1.75 -0.497 -0.322 -0.371 -0.8855 -1.1655 -1.4769999999999999 -2.226 -0.31149999999999994 0 -0.5145 0 -0.749 -0.020999999999999998v1.6239999999999999c0 0.8225 0.21 0.742 0.9029999999999999 0.8365v0.2835c-0.24149999999999996 -0.010499999999999999 -0.8085 -0.028 -1.2459999999999998 -0.028 -0.45849999999999996 0 -0.9135 0.020999999999999998 -1.176 0.028v-0.2835c0.5425 -0.10149999999999999 0.7699999999999999 -0.0455 0.7699999999999999 -0.8365V6.915c0 -0.7909999999999999 -0.224 -0.7349999999999999 -0.7699999999999999 -0.8365v-0.2835c0.9029999999999999 0.034999999999999996 1.8584999999999998 -0.020999999999999998 2.4815 -0.020999999999999998 1.1095 0 1.9564999999999997 0.504 1.9564999999999997 1.596 0 0.7384999999999999 -0.5844999999999999 1.4769999999999999 -1.3719999999999999 1.6624999999999999 0.476 0.847 1.0499999999999998 1.596 1.4769999999999999 2.0615 0.252 0.27299999999999996 0.602 0.5145 0.952 0.5145v0.2555Zm0.8015 -4.7250000000000005c-0.8154999999999999 0 -1.127 -0.5495 -1.127 -1.127V4.885c0 -0.42699999999999994 0.308 -1.064 1.19 -1.064s1.064 0.6265000000000001 1.064 0.6265000000000001l-0.3745 0.252s-0.19249999999999998 -0.4375 -0.6895 -0.4375c-0.27649999999999997 0 -0.6895 0.2555 -0.6895 0.6895v0.938c0 0.469 0.23099999999999998 0.8154999999999999 0.6265000000000001 0.8154999999999999 0.49349999999999994 0 0.7525 -0.3815 0.7525 -0.938h-0.6265000000000001V5.3925h1.064c0 0.7174999999999999 0.16449999999999998 1.7465 -1.19 1.7465Zm-4.0775 1.5644999999999998c-0.32899999999999996 0 -0.476 -0.010499999999999999 -0.7000000000000001 -0.028v-2.4395c0.224 -0.020999999999999998 0.5249999999999999 -0.020999999999999998 0.7875 -0.020999999999999998 0.8154999999999999 0 1.302 0.42699999999999994 1.302 1.2075 0 0.7665 -0.5249999999999999 1.281 -1.3895 1.281Z" fill="currentColor" stroke-width="0.0357"></path>
</svg>